HIERARCHY
ROOT hip
{
	OFFSET 0.000000 0.000000 0.000000 
	CHANNELS 6 Xposition Yposition Zposition Zrotation Xrotation Yrotation
	JOINT abdomen
	{
		OFFSET 0.000000 3.402643 0.000000 
		CHANNELS 3 Zrotation Xrotation Yrotation
		JOINT chest
		{
			OFFSET 0.000000 8.438565 -0.680529 
			CHANNELS 3 Zrotation Xrotation Yrotation
			JOINT neck
			{
				OFFSET 0.000000 10.207942 -0.272212 
				CHANNELS 3 Zrotation Xrotation Yrotation
				JOINT head
				{
					OFFSET 0.000000 3.130431 0.000000 
					CHANNELS 3 Zrotation Xrotation Yrotation
					End Site
					{
						OFFSET 0.000000 3.130435 0.000000 
					}
				}
			}
			JOINT lCollar
			{
				OFFSET 3.470700 6.669187 -0.816635 
				CHANNELS 3 Zrotation Xrotation Yrotation
				JOINT lShldr
				{
					OFFSET 3.198488 0.000000 0.000000 
					CHANNELS 3 Zrotation Xrotation Yrotation
					JOINT lForeArm
					{
						OFFSET 10.139888 0.000000 0.000000 
						CHANNELS 3 Zrotation Xrotation Yrotation
						JOINT lHand
						{
							OFFSET 8.370511 0.000000 0.000000 
							CHANNELS 3 Zrotation Xrotation Yrotation
							End Site
							{
								OFFSET 4.083176 0.000000 0.000000 
							}
						}
					}
				}
			}
			JOINT rCollar
			{
				OFFSET -3.470700 6.669187 -0.816635 
				CHANNELS 3 Zrotation Xrotation Yrotation
				JOINT rShldr
				{
					OFFSET -3.198488 0.000000 0.000000 
					CHANNELS 3 Zrotation Xrotation Yrotation
					JOINT rForeArm
					{
						OFFSET -10.139888 0.000000 0.000000 
						CHANNELS 3 Zrotation Xrotation Yrotation
						JOINT rHand
						{
							OFFSET -8.370511 0.000000 0.000000 
							CHANNELS 3 Zrotation Xrotation Yrotation
							End Site
							{
								OFFSET -4.083176 0.000000 0.000000 
							}
						}
					}
				}
			}
		}
	}
	JOINT lThigh
	{
		OFFSET 5.308129 -1.633274 1.361059 
		CHANNELS 3 Zrotation Xrotation Yrotation
		JOINT lShin
		{
			OFFSET -2.041588 -20.007561 0.000000 
			CHANNELS 3 Zrotation Xrotation Yrotation
			JOINT lFoot
			{
				OFFSET 0.000000 -19.190928 -1.224953 
				CHANNELS 3 Zrotation Xrotation Yrotation
				End Site
				{
					OFFSET 0.000000 -2.449906 4.627600 
				}
			}
		}
	}
	JOINT rThigh
	{
		OFFSET -5.308129 -1.633274 1.361059 
		CHANNELS 3 Zrotation Xrotation Yrotation
		JOINT rShin
		{
			OFFSET 2.041588 -20.007561 0.000000 
			CHANNELS 3 Zrotation Xrotation Yrotation
			JOINT rFoot
			{
				OFFSET 0.000000 -19.190928 -1.224953 
				CHANNELS 3 Zrotation Xrotation Yrotation
				End Site
				{
					OFFSET 0.000000 -2.449906 4.627600 
				}
			}
		}
	}
}
MOTION
Frames: 13
Frame Time: 0.033333
-0.830318 48.871258 -2.450897 -0.000010 -0.000010 -0.000000 -0.068359 -0.195315 0.263439 -0.517582 0.214839 1.173816 -3.521802 -3.392038 -6.146738 0.713361 2.079916 -39.801144 -5.687435 -0.268816 2.011532 -72.947189 15.738561 10.363276 -8.608585 3.601588 -19.084557 5.932218 -0.060075 -3.367898 7.327380 1.109976 -3.846753 67.691139 11.143488 14.946378 16.258814 4.766125 10.177790 -10.325925 -1.451097 0.266317 2.934317 -1.352505 -0.146028 -2.166111 -0.604539 0.626747 -2.703126 0.909830 19.890862 -4.974880 -21.175161 -1.881137 4.672165 39.249470 0.174792 0.935793 11.568233 1.772049 
-0.830318 48.871258 -2.450897 -0.000010 -0.000010 -0.000000 -0.097663 -0.683595 0.350397 -0.263681 -0.468742 1.365031 -2.964188 -3.393906 -6.122904 0.713361 2.079916 -39.801144 -3.995287 -0.264362 3.370691 -73.054359 14.958997 9.959938 -10.233051 3.823601 -15.837767 6.533336 -0.591823 -2.920136 7.105578 0.931117 -3.673787 68.297119 11.554847 12.732959 16.241848 4.923487 10.824202 -10.095984 -1.226848 1.610644 3.112381 -2.676007 -0.070389 -2.266086 2.408554 0.397156 -2.734773 -0.911324 24.416716 -3.374982 -18.936493 -1.282434 4.281897 35.611012 0.278898 0.264375 6.758697 -10.224847 
-0.830318 48.871258 -2.450897 -0.000010 -0.000010 -0.000000 -0.136755 -1.318357 0.465604 0.048841 -1.347654 1.641782 -2.240263 -3.395852 -6.089798 0.713361 2.079916 -39.801144 -1.828680 -0.163093 5.095057 -73.259491 13.969130 9.653334 -12.297421 3.853079 -11.747477 7.271904 -1.271923 -2.415598 6.843558 0.713164 -3.500921 69.088928 12.015710 10.046539 16.303036 5.122031 11.530032 -9.855229 -0.979369 3.300776 3.425925 -4.277521 0.080628 -2.425155 6.185968 0.104719 -3.304699 -2.430468 28.877384 -1.949565 -16.007246 -0.791912 3.844770 30.426483 0.313923 -0.538034 2.759664 -21.986969 
-0.830318 48.871258 -2.450897 -0.000010 -0.000010 -0.000000 -0.166112 -1.953117 0.580276 0.371377 -2.236282 1.918786 -1.438075 -3.397374 -6.061801 0.713361 2.079916 -39.801144 0.352927 0.091551 6.855349 -73.452812 12.962654 9.221337 -14.480272 3.605361 -7.635479 8.047923 -1.958630 -1.864617 6.562511 0.491807 -3.289211 69.941246 12.492082 7.232656 16.297235 5.332236 12.324643 -9.607816 -0.698847 5.032885 3.511076 -3.730782 0.003591 -2.361116 5.407552 0.055275 -3.477432 -2.279519 33.421688 -0.579714 -12.480522 -0.350014 3.406760 24.042120 0.248354 -1.336810 -0.734810 -33.543362 
-0.830318 48.871258 -2.450897 -0.000010 -0.000010 -0.000000 -0.205266 -2.451158 0.645518 0.645374 -2.929501 2.074000 -0.586970 -3.398264 -6.030998 0.713362 2.079916 -39.791386 2.086595 0.443995 8.334301 -73.488792 12.054540 8.279510 -16.507597 3.146972 -4.203192 8.802139 -2.551018 -1.250709 6.273084 0.276277 -2.999666 70.795456 12.971346 4.409612 16.050779 5.477736 13.307613 -9.270639 -0.437925 6.499419 3.595160 -2.979307 -0.105393 -2.305958 4.207341 0.102527 -3.630041 -1.987335 37.843281 0.670984 -8.072810 0.145304 2.977590 15.674380 0.136799 -2.250955 -3.170006 -44.987209 
-0.830318 48.871258 -2.450898 -0.000010 -0.000010 -0.000000 -0.244402 -2.646461 0.623481 0.811846 -3.241860 2.008805 0.273919 -3.398404 -5.989621 0.713362 2.079916 -39.791386 2.948714 0.788183 9.265085 -73.227570 11.375071 6.435524 -18.138840 2.668868 -2.103615 9.471743 -2.954738 -0.546160 5.976966 0.093057 -2.564154 71.565804 13.461045 1.747234 15.335222 5.498008 14.596189 -8.774387 -0.228372 7.420618 3.702981 -2.201783 -0.176848 -2.228641 2.945688 0.112325 -3.820785 -1.604682 42.343079 1.988383 -1.966641 0.623782 2.327094 3.802963 -0.218466 -2.229023 -3.138055 -55.879635 
-0.830318 48.871258 -2.450898 -0.000010 -0.000010 -0.000000 -0.293244 -2.470670 0.475587 0.831245 -3.036788 1.645603 1.115242 -3.397799 -5.959095 0.713362 2.079916 -39.791386 2.651103 1.024861 9.433647 -72.592873 10.996701 3.452135 -19.184860 2.425335 -1.762611 9.984139 -3.083636 0.249757 5.685266 -0.048928 -1.962953 72.189194 13.973624 -0.654124 14.061442 5.289890 16.251196 -8.079041 -0.064041 7.579512 4.665910 -7.346947 0.550471 -2.826495 13.280261 -0.244540 -3.378288 -2.353209 34.650230 1.727507 -2.504822 0.650811 2.454738 4.376070 -0.303170 -1.985342 -2.891251 -49.987598 
-0.830318 48.871258 -2.450898 -0.000010 -0.000010 -0.000000 -0.322463 -2.001921 0.252352 0.742862 -2.441201 1.047268 1.878300 -3.396619 -5.933598 0.713361 2.079917 -39.781628 1.375123 1.125393 8.934064 -71.657341 10.859145 -0.377862 -19.650129 2.526703 -2.820128 10.334332 -2.973005 0.980942 5.437296 -0.157026 -1.331866 72.660057 14.484619 -2.824213 12.476508 4.878256 17.998800 -7.285635 0.038224 7.121374 5.662020 -11.182348 1.044766 -3.380130 20.787926 -0.196919 -3.659298 -0.699093 26.867157 1.562888 -2.827257 0.520336 2.473577 4.500848 -0.341114 -1.740945 -2.508868 -43.977871 
-0.830318 48.871258 -2.450897 -0.000010 -0.000010 -0.000000 -0.322363 -1.396463 0.011620 0.615483 -1.630766 0.359418 2.543529 -3.395103 -5.903958 0.713361 2.079917 -39.781628 -0.565382 1.153598 7.950642 -70.559982 10.863640 -4.584282 -19.569008 2.885170 -4.719389 10.522641 -2.699559 1.471039 5.270684 -0.225442 -0.846018 72.965332 14.949294 -4.821764 10.860574 4.338469 19.505583 -6.531561 0.083842 6.250923 6.688096 -14.200414 1.624347 -3.824371 26.607428 -0.252209 -3.868227 1.817669 19.067837 1.386872 -3.070589 0.461134 2.505223 4.485470 -0.421432 -1.601115 -2.029951 -38.045563 
-0.830318 48.871258 -2.450897 -0.000010 -0.000010 -0.000000 -0.273465 -0.800775 -0.199135 0.488329 -0.800751 -0.325206 3.062015 -3.393603 -5.883027 0.713362 2.079916 -39.791386 -2.868336 1.160131 6.644269 -69.424194 10.949191 -8.724474 -18.978443 3.442993 -6.935369 10.552411 -2.305626 1.535873 5.221760 -0.268197 -0.690491 73.119034 15.338847 -6.704715 9.509122 3.825433 20.404854 -5.967654 0.087157 5.190249 7.729462 -16.753136 2.246424 -4.191185 31.438608 -0.254453 -4.053933 4.746924 11.244826 1.259967 -1.989729 0.408162 2.429843 1.695937 -0.581573 -1.570183 -0.419104 -31.898882 
-0.830318 48.871258 -2.450897 -0.000010 -0.000010 -0.000000 -0.146487 -0.351559 -0.303633 0.439454 -0.126951 -0.877932 3.394627 -3.392491 -5.873103 0.713362 2.079916 -39.791386 -5.224798 1.160525 5.214685 -68.410698 11.052165 -12.331825 -17.875875 4.091374 -8.951729 10.455365 -1.882054 1.014083 5.347576 -0.271379 -1.020937 73.115196 15.613470 -8.540013 8.662154 3.514907 20.377197 -5.745160 0.043636 4.142275 8.805146 -19.089640 2.805423 -4.547032 35.788425 -0.218149 -4.128450 8.037290 3.392665 1.118277 -1.351313 0.397364 2.379016 -0.058109 -0.698016 -1.463310 0.794161 -25.891024 
-0.830318 48.871258 -2.450897 -0.000010 -0.000010 -0.000000 0.058594 -0.195316 -0.273238 0.507816 0.214837 -1.183543 3.512021 -3.392073 -5.866159 0.713361 2.079916 -39.801144 -7.337014 1.111803 3.836985 -67.698997 11.142990 -14.956314 -16.293049 4.776779 -10.187516 10.256380 -1.472194 -0.304017 5.677635 -0.269442 -2.021281 72.939827 15.736414 -10.373324 8.572983 3.593884 19.072248 -6.002429 -0.034737 3.336431 9.718631 -20.948730 3.255467 -4.752811 39.159546 -0.232307 -4.140694 11.702558 -4.383709 0.933912 -1.323188 0.365961 2.357546 -0.671690 -0.718263 -1.293160 1.521392 -19.905859 
-0.830318 48.871258 -2.450896 -0.000010 -0.000010 -0.000000 0.371104 -0.429678 -0.046045 0.742189 0.087886 -1.182779 3.384843 -3.392528 -5.873684 0.713362 2.079917 -39.820683 -8.969691 0.935323 2.682376 -67.434708 11.232141 -16.247295 -14.313210 5.501281 -10.275822 9.968820 -1.129280 -2.443687 6.245476 -0.274721 -3.756851 72.584175 15.689125 -12.199393 9.485477 4.074014 16.342064 -6.813837 -0.144763 2.911193 8.952716 -19.683897 2.891271 -4.459844 34.873047 -0.229296 -4.352406 8.736032 -4.680645 0.966422 -1.677320 0.375291 2.380852 0.019627 -0.677149 -1.299731 1.400507 -15.302400 
